<?xml version="1.0" encoding="utf-8"?>
<!-- Generator: Adobe Illustrator 22.0.1, SVG Export Plug-In . SVG Version: 6.00 Build 0)  -->
<svg version="1.1" id="Capa_1" xmlns="http://www.w3.org/2000/svg" xmlns:xlink="http://www.w3.org/1999/xlink" x="0px" y="0px"
	 viewBox="0 0 400 400" style="enable-background:new 0 0 400 400;" xml:space="preserve">
<style type="text/css">
	.st0{fill:url(#SVGID_1_);}
	.st1{fill:#FFFFFF;}
</style>
<g>
	<g>
		
			<linearGradient id="SVGID_1_" gradientUnits="userSpaceOnUse" x1="366.7988" y1="-18.6685" x2="753.0536" y2="-18.6685" gradientTransform="matrix(0.8389 -0.5294 0.5298 0.8395 -258.4572 512.0156)">
			<stop  offset="0" style="stop-color:#583787"/>
			<stop  offset="1" style="stop-color:#BF2645"/>
		</linearGradient>
		<circle class="st0" cx="201.4" cy="199.9" r="191.6"/>
		<g>
			<path class="st1" d="M153.2,228c2.1,3.6,4.7,7.2,7.9,10.8c3.2,3.6,7.1,6.8,11.9,9.5c4.8,2.7,10.6,4.9,17.3,6.5
				c6.7,1.7,14.8,2.5,24.1,2.5c9.3,0,17.3-0.7,23.9-2c6.6-1.4,12.2-2.8,16.7-4.3c5.1-1.8,9.5-4.1,13.1-6.8l45.5,45
				c-5.7,6-12.4,11.3-20,16c-7.7,4.7-15.9,8.6-24.8,11.9c-8.9,3.3-17.9,5.9-27.2,7.7c-9.3,1.8-18.3,2.7-27,2.7
				c-20.7,0-39.6-3.3-56.7-9.9c-17.1-6.6-31.7-15.6-43.9-27c-12.2-11.4-21.6-24.7-28.4-39.9c-6.8-15.2-10.1-31.4-10.1-48.9
				c0-17.4,3.3-33.7,9.9-48.9c6.6-15.2,15.6-28.4,27-39.9c11.4-11.4,24.7-20.4,39.9-27c15.2-6.6,31.4-9.9,48.9-9.9
				c17.4,0,33.7,3.3,48.9,9.9c15.2,6.6,28.4,15.6,39.9,27c11.4,11.4,20.4,24.7,27,39.9c6.6,15.2,9.9,31.5,9.9,48.9V228H153.2z
				 M201,138c-1.8,0-5,0.2-9.7,0.7c-4.7,0.4-9.7,2-15.1,4.5c-5.4,2.6-10.7,6.4-15.8,11.5c-5.1,5.1-9,12.2-11.7,21.2h103.6
				c-2.7-9-6.5-16.1-11.5-21.2c-5-5.1-10.1-8.9-15.5-11.5c-5.4-2.5-10.4-4.1-14.9-4.5C205.9,138.2,202.8,138,201,138z"/>
		</g>
	</g>
</g>
</svg>
